{"title":"Home Alone - Mamma Ho Perso L'Aereo (1990).BRrip.XviD - Italian ","uid":11795455,"size":1870207516,"categoryP":"video","categoryS":"movies","magnet":"?xt=urn:btih:9bce94e55fb7b16eeae74cf242203b2244745ffa&amp;dn=Home+Alone+-+Mamma+Ho+Perso+L%27Aereo+%281990%29.BRrip.XviD+-+Italian+&amp;tr=udp%3A%2F%2Ftracker.openbittorrent.com%3A80&amp;tr=udp%3A%2F%2Fopen.demonii.com%3A1337&amp;tr=udp%3A%2F%2Ftracker.coppersurfer.tk%3A6969&amp;tr=udp%3A%2F%2Fexodus.desync.com%3A6969","seeders":15,"leechers":10,"uploader":"robbyrs4","files":7,"time":1428106957,"description":"Home Alone - Mamma Ho Perso L'Aereo (1990).BRrip.XviD - Italian English.Ac3 - 5.1  - Sub.Ita.Eng.MIRCrew\n\n\n\n[center]\n\n[color=red][b][img]http://s19.postimg.org/9qdjr7p77/Original_release_2.png[/img]\n\n[u]NO FOUND ONLY ORIGINAL RELEASE[/u]\n\nMamma Ho Perso L'Aereo - Home Alone (1990)\n\n[img]http://img651.imageshack.us/img651/3769/newprojectwe.png[/img]\n\n\n[URL=http://www.imdb.com/title/tt0099785/][IMG]http://www.userlogos.org/files/logos/Sucka/imdb_new.png[/IMG][/URL]  \n\n[img]http://s19.postimg.org/vz5tzn42b/1_scheda.png[/img]\n\nTitolo originale:Home Alone\nNazione:USA\nAnno di produzione:1990\nCast:Macaulay Culkin, Joe Pesci, Daniel Stern, John Heard, Robert Blossom.\nRegia:Chris Columbus\nGenere:Commedia\nDurata:102 min\n\n[img]http://s19.postimg.org/q8fnlww2b/1_cast.png[/img]\n\n\nMacaulay Culkin: Kevin McCallister\nJoe Pesci: Harry Lime\nDaniel Stern: Marv Merchants\nCatherine O'Hara: Kate McCallister\nRoberts Blossom: vecchio Marley\nJohn Heard: Peter McCallister\nJohn Candy: Gus Polinski\nDevin Ratray: Buzz McCallister\nAngela Goethals: Linnie McCallister\nMichael C. Maronna: Jeff McCallister\nHillary Wolf: Megan McCallister\nGerry Bamman: zio Frank McCallister\nTerrie Snell: zia Leslie McCallister\nKieran Culkin: Fuller McCallister\nKristin Minter: Heather McCallister\nDan Charles Zukoski: fattorino delle pizze\nBill Erwin: Ed\nLarry Hankin: sergente Larry Balzak\n..........................\n\n  \n[img]http://s19.postimg.org/okgi79i6r/1_trama.png[/img]. \n\nNella fretta di prendere l'aereo diretto a Parigi dove vogliono passare le vacanze di Natale, i McCallister, famiglia numerosa, dimenticano Kevin di otto anni a casa. Due malviventi cercano di entrare nella villetta per fare razzia. Peggio per loro.......................\n\n[img]http://s19.postimg.org/fzn6g380j/1_story.png[/img]\n\nAn 8-year old troublemaker must protect his home from a pair of burglars when he is accidentally left home alone by his family during Christmas vacation..........\n &lt;a href=&quot;\nhttp://extraimago.com/images/2015/04/04/vlcsnap-2015-04-04-12h11m29s111.png[/img]&quot; rel=&quot;nofollow&quot; target=&quot;_NEW&quot;&gt;\nhttp://extraimago.com/images/2015/04/04/vlcsnap-2015-04-04-12h11m29s111.png[/img]&lt;/a&gt; &lt;a href=&quot;\nhttp://extraimago.com/images/2015/04/04/vlcsnap-2015-04-04-12h12m12s24.png[/img]&quot; rel=&quot;nofollow&quot; target=&quot;_NEW&quot;&gt;\nhttp://extraimago.com/images/2015/04/04/vlcsnap-2015-04-04-12h12m12s24.png[/img]&lt;/a&gt; &lt;a href=&quot;\nhttp://extraimago.com/images/2015/04/04/vlcsnap-2015-04-04-12h12m19s94.png[/img]&quot; rel=&quot;nofollow&quot; target=&quot;_NEW&quot;&gt;\nhttp://extraimago.com/images/2015/04/04/vlcsnap-2015-04-04-12h12m19s94.png[/img]&lt;/a&gt;\n\n[IMG]http://img153.imageshack.us/img153/3158/restateinseedblood.gif[/img]\n\n\n[img]http://imgur.com/lvhU6.gif[/img]\n\n\n[img]http://s19.postimg.org/a2jaz9qvn/1_dati.png[/img]\n\n\n[spoiler]\nGeneral\nComplete name                            : Mamma Ho Perso L'Aereo - Home Alone (1990).ita.eng.sub.ita.eng.MIRCrewMamma Ho Perso L'Aereo - Home Alone (1990).ita.eng.sub.ita.eng.MIRCrew.avi\nFormat                                   : AVI\nFormat/Info                              : Audio Video Interleave\nFile size                                : 1.73 GiB\nDuration                                 : 1h 42mn\nOverall bit rate                         : 2 405 Kbps\nWriting application                      : VirtualDubMod 1.5.10.2 (build 2540/release)\nWriting library                          : VirtualDubMod build 2540/release\n\nVideo\nID                                       : 0\nFormat                                   : MPEG-4 Visual\nFormat profile                           : Simple@L3\nFormat settings, BVOP                    : No\nFormat settings, QPel                    : No\nFormat settings, GMC                     : No warppoints\nFormat settings, Matrix                  : Default (H.263)\nCodec ID                                 : XVID\nCodec ID/Hint                            : XviD\nDuration                                 : 1h 42mn\nBit rate                                 : 1 495 Kbps\nWidth                                    : 720 pixels\nHeight                                   : 386 pixels\nDisplay aspect ratio                     : 16:9\nFrame rate                               : 23.976 fps\nColor space                              : YUV\nChroma subsampling                       : 4:2:0\nBit depth                                : 8 bits\nScan type                                : Progressive\nCompression mode                         : Lossy\nBits/(Pixel*Frame)                       : 0.224\nStream size                              : 1.07 GiB (62%)\nWriting library                          : XviD 65\n\nAudio #1\nID                                       : 1\nFormat                                   : AC-3\nFormat/Info                              : Audio Coding 3\nMode extension                           : CM (complete main)\nCodec ID                                 : 2000\nDuration                                 : 1h 42mn\nBit rate mode                            : Constant\nBit rate                                 : 448 Kbps\nChannel(s)                               : 6 channels\nChannel positions                        : Front: L C R, Side: L R, LFE\nSampling rate                            : 48.0 KHz\nBit depth                                : 16 bits\nCompression mode                         : Lossy\nStream size                              : 330 MiB (19%)\nAlignment                                : Split accross interleaves\nInterleave, duration                     : 42 ms (1.00 video frame)\nInterleave, preload duration             : 500 ms\n\nAudio #2\nID                                       : 2\nFormat                                   : AC-3\nFormat/Info                              : Audio Coding 3\nMode extension                           : CM (complete main)\nCodec ID                                 : 2000\nDuration                                 : 1h 42mn\nBit rate mode                            : Constant\nBit rate                                 : 448 Kbps\nChannel(s)                               : 6 channels\nChannel positions                        : Front: L C R, Side: L R, LFE\nSampling rate                            : 48.0 KHz\nBit depth                                : 16 bits\nCompression mode                         : Lossy\nStream size                              : 330 MiB (19%)\nAlignment                                : Split accross interleaves\nInterleave, duration                     : 42 ms (1.00 video frame)\nInterleave, preload duration             : 500 ms\n\n\n\n[/spoiler]\n\n[/color][/b][/center]","torrent":{"xt":"urn:btih:9bce94e55fb7b16eeae74cf242203b2244745ffa","amp;dn":"Home+Alone+-+Mamma+Ho+Perso+L%27Aereo+%281990%29.BRrip.XviD+-+Italian+","amp;tr":["udp%3A%2F%2Ftracker.openbittorrent.com%3A80","udp%3A%2F%2Fopen.demonii.com%3A1337","udp%3A%2F%2Ftracker.coppersurfer.tk%3A6969","udp%3A%2F%2Fexodus.desync.com%3A6969"],"infoHash":"9bce94e55fb7b16eeae74cf242203b2244745ffa","infoHashBuffer":{"type":"Buffer","data":[155,206,148,229,95,183,177,110,234,231,76,242,66,32,59,34,68,116,95,250]},"announce":[],"urlList":[]}}